# xmcd
#
# Track frame offsets: 
#        182
#        10892
#        26110
#        37552
#        54277
#        66567
#        75112
#        88705
#        101160
#        112445
#        126132
#        139337
#        154820
#        167560
#        180640
#        190765
#        202752
#        215665
#        224585
#
# Disc length: 3124 seconds
#
# Revision: 3
# Processed by: cddbd v1.5.2PL0 Copyright (c) Steve Scherf et al.
# Submitted via: ExactAudioCopy v1.0b4
#
DISCID=0b0c3213
DTITLE=Grupo Vou Vivendo - Brasil Revive O Chorinho - 2
DYEAR=1989
DGENRE=Other
TTITLE0=Feitiço
TTITLE1=Esperando A Feijoada
TTITLE2=Meu Bem
TTITLE3=Bebê
TTITLE4=Apanhei-te Cavaquinho
TTITLE5=Zé! Traz O Pãozinho
TTITLE6=Meu Caro Amigo
TTITLE7=Acerta o Passo
TTITLE8=Tico Tico No Fubá
TTITLE9=João E Maria
TTITLE10=Lua De Mel
TTITLE11=Minhas Mãos Meu Cavaquinho
TTITLE12=O Bom Filho A Casa Torna
TTITLE13=Atraente
TTITLE14=Meu Doce Chorinho
TTITLE15=Brasilliance
TTITLE16=Lamentos
TTITLE17=Joaquim Virou Padre
TTITLE18=Pot Pourri - Sofre Porque Queres - Ingênuo - Os 8 Batutas - 1
TTITLE18=X 0 (Um A Zero)
EXTD=
EXTT0=
EXTT1=
EXTT2=
EXTT3=
EXTT4=
EXTT5=
EXTT6=
EXTT7=
EXTT8=
EXTT9=
EXTT10=
EXTT11=
EXTT12=
EXTT13=
EXTT14=
EXTT15=
EXTT16=
EXTT17=
EXTT18=
PLAYORDER=
